HIERARCHY
ROOT pelvis
{
  OFFSET 0 100 0
  CHANNELS 6 Xposition Yposition Zposition Zrotation Xrotation Yrotation
  JOINT pelvis_right_femur
  {
    OFFSET -10.78128 -3.44521 -0.5502486
    CHANNELS 3 Zrotation Xrotation Yrotation
    JOINT right_femur_tibia
    {
      OFFSET -0.8047443 -44.0398 -0.1307829
      CHANNELS 3 Zrotation Xrotation Yrotation
      JOINT right_tibia_foot
      {
        OFFSET 3.006224 -47.83518 -5
        CHANNELS 3 Zrotation Xrotation Yrotation
        End Site
        {
          OFFSET 0 -5 15
        }
      }
    }
  }
  JOINT pelvis_left_femur
  {
    OFFSET 10.78128 -3.44521 -0.5502486
    CHANNELS 3 Zrotation Xrotation Yrotation
    JOINT left_femur_tibia
    {
      OFFSET 0.8047443 -44.0398 -0.1307829
      CHANNELS 3 Zrotation Xrotation Yrotation
      JOINT left_tibia_foot
      {
        OFFSET -4.370144 -48.10324 -4.275266
        CHANNELS 3 Zrotation Xrotation Yrotation
        End Site
        {
          OFFSET 0 -5 15
        }
      }
    }
  }
  JOINT pelvis_spine1
  {
    OFFSET 0 6.468898 -3.129235
    CHANNELS 3 Zrotation Xrotation Yrotation
    JOINT spine1
    {
      OFFSET 0 23.15396 4.99043
      CHANNELS 3 Zrotation Xrotation Yrotation
      JOINT spine2
      {
        OFFSET 0 20.79997 -5.064912
        CHANNELS 3 Zrotation Xrotation Yrotation
        JOINT neck
        {
          OFFSET 0 14.38658 9.616178
          CHANNELS 3 Zrotation Xrotation Yrotation
          End Site
          {
            OFFSET 0 20 0
          }
        }
      }
      JOINT right_manubrium
      {
        OFFSET -5.722621 16.35077 3.967754
        CHANNELS 3 Zrotation Xrotation Yrotation
        JOINT right_clavicle
        {
          OFFSET -13.16364 1.694482 -4.693211
          CHANNELS 3 Zrotation Xrotation Yrotation
          JOINT right_humerus
          {
            OFFSET -28.5034 -0.3100689 -2.792744
            CHANNELS 3 Zrotation Xrotation Yrotation
            JOINT right_radius
            {
              OFFSET -25.15693 0.02248979 -1.271978
              CHANNELS 3 Zrotation Xrotation Yrotation
              End Site
              {
                OFFSET -15 0 0
              }
            }
          }
        }
      }
      JOINT left_manubrium
      {
        OFFSET 5.722621 16.35077 3.967754
        CHANNELS 3 Zrotation Xrotation Yrotation
        JOINT left_clavicle
        {
          OFFSET 13.16364 1.694482 -4.693211
          CHANNELS 3 Zrotation Xrotation Yrotation
          JOINT left_humerus
          {
            OFFSET 29.39168 -1.063119 -2.237045
            CHANNELS 3 Zrotation Xrotation Yrotation
            JOINT left_radius
            {
              OFFSET 24.59957 -0.9528479 0.9047498
              CHANNELS 3 Zrotation Xrotation Yrotation
              End Site
              {
                OFFSET 15 -0 -0
              }
            }
          }
        }
      }
    }
  }
}
MOTION
Frames: 10
Frame Time: 0.0416666666667
36.82064 105.7884 244.6784 2.500325 -7.078138 6.782962 0.4445552 11.7751 6.343555 -5.58472e-06 36.58289 3.050158e-06 1.634815 -9.534293 -4.355286 -2.694085 -16.37051 -7.918778 5.079482e-07 19.1524 -6.856908e-06 -7.37884 -10.67823 19.42749 -2.198288 0.3554743 7.324531 -1.452524 9.436229 -3.705898 2.067299 22.5668 5.452182 2.82962 -16.30883 6.542437 2.826424 -20.24769 10.73199 82.84398 26.33017 -8.056489 -9.432503e-07 -1.557709e-06 22.86187 -22.329 10.85815 13.01583 4.618367 -15.77 -2.900887 -94.41031 27.42832 24.20283 2.18611e-06 -2.772397e-07 -11.43407 -4.771543 6.178104 20.10545
38.37497 106.2332 250.5033 2.709936 -7.434415 7.195306 0.05036189 9.724006 6.424216 -8.855331e-06 42.98778 5.02364e-06 1.504551 -7.09578 -4.890096 -3.815649 -12.99656 -9.099252 -2.96276e-06 20.33097 -1.736062e-06 -7.200271 -11.24225 19.40981 -2.452976 0.3575054 6.772845 -1.489085 9.353265 -3.760159 2.142889 22.82247 5.659003 2.937173 -16.30471 6.812253 3.09625 -19.31844 10.57417 83.34737 26.40578 -8.861595 -3.633519e-07 -1.7016e-06 21.32989 -21.72129 10.42334 12.37936 4.470574 -15.58475 -3.020852 -93.76677 28.05556 23.1067 8.432792e-07 -9.803404e-08 -10.93688 -4.642626 6.392328 20.05297
39.89188 107.023 256.1421 2.936754 -7.694511 7.793972 -0.3238464 6.520503 6.396626 -1.056652e-05 48.87129 6.482699e-06 1.344392 -4.937158 -5.532053 -4.974822 -8.553903 -10.47357 -5.813038e-06 20.46125 3.407915e-06 -6.887359 -12.36313 19.43962 -2.758555 0.384707 6.056788 -1.439495 9.12148 -3.913247 2.245709 23.15595 5.883419 3.012096 -16.32943 7.182794 3.329662 -18.24068 10.33118 84.08506 26.50994 -9.983841 -5.392571e-08 -1.512584e-06 19.55382 -20.84445 9.90466 11.54145 4.461843 -15.49908 -3.111474 -92.97041 28.86751 21.46808 -1.45176e-07 2.484804e-07 -10.81044 -4.403527 6.80612 19.8306
41.33026 107.9962 261.5396 3.08181 -7.737699 8.506049 -0.4677871 2.396712 6.244263 -8.829606e-06 52.29524 5.829982e-06 0.9983475 -3.674421 -6.147978 -5.88066 -3.60903 -11.79594 -7.526413e-06 20.06965 7.863228e-06 -6.48401 -13.74962 19.44791 -3.002379 0.4301429 5.264441 -1.247202 8.74922 -4.173899 2.360272 23.46321 6.052583 3.021713 -16.40101 7.576387 3.466457 -17.11188 10.02817 84.77991 26.64069 -11.34005 -1.365496e-07 -8.554415e-07 17.63478 -19.60197 9.376956 10.47799 4.599136 -15.5774 -3.140194 -91.86077 29.71341 19.3387 -5.641653e-07 7.856194e-07 -11.23612 -3.978487 7.461329 19.2812
42.70699 108.9182 266.82 3.184206 -7.6237 9.296064 -0.4890046 -2.061615 5.882792 -5.138107e-06 52.79921 3.792997e-06 0.833745 -3.027711 -6.751116 -6.382222 1.017881 -12.58514 -6.495728e-06 18.69509 9.497082e-06 -6.227635 -15.38373 19.26436 -3.159139 0.4871671 4.564389 -1.014082 8.421831 -4.551739 2.446126 23.68897 6.185715 3.002689 -16.44768 7.893404 3.449689 -16.21209 9.773067 85.77991 26.61991 -12.89777 -4.50919e-07 -1.801878e-07 15.99491 -18.76163 9.078554 9.664131 4.929859 -15.98944 -3.225961 -90.73548 30.25607 16.98516 -1.939929e-07 1.228147e-06 -12.55127 -3.522028 7.99189 18.67644
43.99433 109.5729 271.9437 3.145385 -7.275765 10.06784 -0.2921453 -6.645868 5.385105 1.728879e-06 49.98826 -1.588916e-07 0.4253297 -3.479857 -7.154517 -6.520063 5.201097 -13.16115 -3.905429e-06 16.45501 9.547356e-06 -5.83703 -17.00487 19.03823 -3.192935 0.5303429 3.904136 -0.6765503 7.999907 -4.960399 2.521824 23.75085 6.197307 2.88385 -16.49408 8.137758 3.229758 -15.47402 9.477724 86.26804 26.47543 -14.27008 -1.118852e-06 9.073474e-07 14.53685 -17.71591 8.817061 8.789345 5.370368 -16.50901 -3.245484 -89.1523 30.56252 14.45616 8.306744e-07 1.722158e-06 -14.2398 -2.866304 8.719436 17.67906
45.19696 109.7899 277.0502 3.045701 -6.869017 10.78527 0.01948011 -11.17936 4.789129 8.392029e-06 44.51619 -3.377414e-06 0.1828771 -4.468874 -7.578941 -6.342429 8.787153 -13.19997 4.939608e-07 14.23157 7.661228e-06 -5.764564 -18.581 18.55908 -3.1057 0.6031349 3.372345 -0.3276288 7.642054 -5.433345 2.58304 23.72407 6.143684 2.737649 -16.44337 8.26978 2.874694 -14.89576 9.236637 86.91235 26.14924 -15.74602 -1.959415e-06 1.977983e-06 13.30573 -17.05798 8.799649 8.125075 5.934528 -17.28022 -3.311643 -87.5248 30.53893 11.76381 2.47935e-06 2.058184e-06 -16.6428 -2.238944 9.2239 16.70063
46.32156 109.5148 282.2535 2.909528 -6.482701 11.41549 0.407892 -15.38115 4.196111 1.375127e-05 37.59781 -5.123147e-06 0.07091524 -5.683452 -8.025326 -5.987575 11.74308 -12.83025 5.581343e-06 12.68627 4.826124e-06 -6.019126 -19.93717 17.87213 -2.921374 0.6974879 2.97154 0.002977059 7.380139 -5.927035 2.633066 23.65056 6.048813 2.592798 -16.3207 8.306544 2.463278 -14.43121 9.06614 87.71122 25.70561 -17.27239 -2.827892e-06 2.927338e-06 12.24209 -16.7347 8.983335 7.636724 6.534177 -18.20322 -3.417963 -86.02643 30.26278 9.124954 4.387011e-06 2.198502e-06 -19.43437 -1.686596 9.503339 15.83015
47.333 108.7804 287.4879 2.706885 -6.100132 11.92272 0.8849124 -19.27742 3.701782 1.895605e-05 30.42643 -6.198762e-06 -0.2896684 -7.142253 -8.383433 -5.597874 14.44439 -12.56017 9.815757e-06 11.78326 2.736753e-06 -6.211752 -21.00179 17.24357 -2.688555 0.780238 2.581825 0.3567739 7.087238 -6.364513 2.694097 23.55202 5.900257 2.418969 -16.21753 8.32936 2.03519 -13.95301 8.883367 88.17481 25.27684 -18.62155 -3.701223e-06 4.05512e-06 11.13927 -16.14504 9.086147 7.008904 7.066865 -19.02629 -3.467069 -84.44814 29.94406 6.623916 6.155461e-06 2.352464e-06 -21.94477 -1.051573 9.917557 14.81366
48.22667 107.7157 292.7484 2.496912 -5.809908 12.30964 1.404159 -22.41207 3.37868 2.27077e-05 24.24072 -6.399409e-06 -0.729942 -8.334465 -8.680374 -5.243485 16.59008 -12.29605 1.277056e-05 12.21359 1.40642e-06 -6.468006 -21.59413 16.64286 -2.430947 0.8414187 2.278855 0.6673349 6.891627 -6.727094 2.74546 23.45938 5.754964 2.282444 -16.15383 8.319159 1.694975 -13.50989 8.764506 88.55181 24.93108 -19.82138 -4.344221e-06 4.989529e-06 10.07926 -15.56455 9.185657 6.404845 7.45674 -19.73768 -3.515241 -83.13157 29.59677 4.58596 7.449822e-06 2.448207e-06 -24.03134 -0.4698316 10.27839 13.90568
